<?xml version="1.0" encoding="UTF-8"?> <svg xmlns="http://www.w3.org/2000/svg" xmlns:xlink="http://www.w3.org/1999/xlink" width="156" height="70"><defs><path id="a" d="M0 .302h70.51v69.115H0z"></path><path id="c" d="M.574.177h8.78v15.189H.574z"></path></defs><g fill="none" fill-rule="evenodd"><g transform="translate(0 .282)"><mask id="b" fill="#fff"><use xlink:href="#a"></use></mask><path d="M70.51.302H24.148s-7.21.042-9.376 7.491L.088 63.528s-1.406 5.885 6.997 5.885h40.127s5.528.353 7.2-6.368l9.614-37-12.011-.236s-5.803.215-8.59 4.232h11.153l-7.583 31.235-38.038.104L22.008 9.524s0-1.233 2.016-1.233h37.02s6.776-.364 9.466-7.99" fill="#E1C574" mask="url(#b)"></path></g><path d="M66.404 10.807h-42.36L11.772 59.099h33.33l6.8-26.316H38.962s-4.907.102-7.587 4.12H42.65L38.96 50.847H21.565l7.696-30.226s.11-2.014 2.894-1.897H55.58s7.362.778 10.824-7.918" fill="#E1C574"></path><path d="M71.268 25.611c.217-.017.429-.025.632-.028.58-.01 1.182.004 1.763.004 1.969 0 3.989-.023 5.966-.023.525 0 1.173-.053 1.563.098.345.136.656.558.48 1.048-.116.317-.32.455-.594.656-.804.591-1.773 1.41-2.824 1.576a4.466 4.466 0 01-.694.038h-5.133c-.36 0-.765-.015-1.075.198-.29.2-.408.532-.492.857-.105.407-.232.807-.333 1.215-.17.693-.377 1.377-.556 2.068-.173.663-.358 1.324-.535 1.988a259.976 259.976 0 01-.323 1.216c-.054.212-.15.482-.091.618.069.159.328.138.63.138 1.544 0 2.977.013 4.541.013.272 0 .608.04.782-.013.25-.074.558-.316.668-.58.106-.254.178-.573.247-.844.106-.418.146-.626.226-.942.065-.258.333-.896.185-1.142-.157-.26-.674-.189-.917-.174-.495.03-.954.002-1.45.012-.621.013-.884.037-1.898-.088-.163-.02-.35-.261-.403-.404-.232-.608.17-.992.605-1.337.224-.178.453-.352.643-.504a4.825 4.825 0 011.722-.896c.701-.192 1.394-.15 2.112-.15h1.299c.752 0 1.878-.15 2.273.676.15.317.238.727.174 1.076-.023.124-.046.254-.076.366-.03.11-.16.567-.19.681-.127.483-.5 1.97-.53 2.094-.026.112-.508 1.959-.541 2.068-.067.223-.208.426-.303.63-.52 1.117-1.606 2.014-2.715 2.505a4.945 4.945 0 01-.942.321c-.502.107-1.151.088-1.767.088-1.547 0-3.046-.011-4.628.013a4.058 4.058 0 01-.832-.064c-.14-.028-.272-.12-.428-.163-.14-.039-.233-.114-.354-.177-.443-.227-.787-.601-1.082-.991-.29-.387-.545-.79-.656-1.268a3.262 3.262 0 01.01-1.512c.02-.087.049-.172.073-.259l.181-.639c.09-.31.176-.621.265-.931.109-.381.22-.762.327-1.143.12-.424.245-.846.365-1.27.123-.435.247-.87.375-1.302.121-.413.23-.829.353-1.241.11-.372.221-.742.322-1.116.102-.383.227-.763.342-1.142.427-1.413 1.908-1.817 3.238-1.918" fill="#231F20"></path><g transform="translate(146.417 25.365)"><mask id="d" fill="#fff"><use xlink:href="#c"></use></mask><path d="M9.355 2.107c0 .19-.499 2.341-.518 2.46a3.156 3.156 0 01-.176.618c-.093.242-.31.237-.631.252-.372.017-.642.023-.97.09-.258.05-.49.002-.644.112-.228.162-.269.349-.341.656a690.62 690.62 0 01-1.361 5.12c-.056.16-.16.384-.003.524.16.143.48.077.672.066.1-.005.2-.018.301-.025.163-.009.38-.043.568-.048.14-.004.426-.065.53 0 .172.109.015.38-.05.53-.056.126-.782 2.468-.833 2.585-.12.274-.477.202-.858.202-.538 0-.943.052-1.425.063-.24.006-.466.051-.694.051-.512 0-.989.025-1.374-.076a1.25 1.25 0 01-.467-.277c-.129-.12-.264-.251-.341-.404-.165-.33-.237-.8-.075-1.198.068-.168 3.38-13.23 3.38-13.23H7.52s-.168.924-.205 1.084c-.045.193-.07.386-.104.581-.072.413.262.327.63.327.186 0 .389.014.518-.012.073-.015.768-.036.997-.05" fill="#231F20" mask="url(#d)"></path></g><path d="M101.588 25.636l-.138.518c-.079.322-.324 1.168-.354 1.287-.03.128-.589 2.34-.617 2.46-.026.109-2.336 8.995-2.358 9.093-.02.085-.143.47-.177.555-.043.11-.182.326-.265.429a2.42 2.42 0 01-.328.352 2.144 2.144 0 01-.315.215c-.275.144-.55.245-.958.252-.742.015-1.228-.342-1.438-.87-.132-.33-.066-.922.025-1.275l3.203-12.245c.029-.106.149-.77.149-.77h3.571zM148.522 25.542l-.163.594c-.03.106-3.164 12.16-3.203 12.297-.23.802-.391 1.558-1.173 2.005-.476.27-1.134.397-1.648.178-.591-.256-.885-.863-.855-1.487.019-.407.155-.79.27-1.175a5169.15 5169.15 0 003.015-11.604l.176-.808h3.581zM137.06 30.95l-.9-.009h-.353c-.122-.002-.244-.002-.366 0-.33.002-.66 0-.99-.006a5.804 5.804 0 00-.726.024c-.112.012-.226.031-.33.077-.189.082-.366.303-.429.466-.057.15-.1.307-.144.463-.036.128-.11.31-.028.435.102.152.361.126.52.124.588-.004 1.192-.006 1.786-.002l.467.006c.209.002.417.002.627.005.266.004.532.002.798-.012.1-.006.205-.016.3-.048a.996.996 0 00.316-.214c.08-.075.189-.212.227-.303.052-.126.094-.234.14-.375.068-.206.121-.502-.14-.587a1.202 1.202 0 00-.381-.044h-.393m1.67-3.282c.303-.003.766.069 1.02.177.216.09.443.161.631.29 1.008.686 1.35 1.907 1.123 3.065-.03.155-1.035 3.847-1.072 4.073-.035.21-.093.404-.228.467-.187.087-.765.025-1.02.025-2.08 0-4.093-.013-6.193-.013-.225 0-.45-.01-.674.004a.667.667 0 00-.328.086c-.116.077-.154.193-.21.314-.111.25-.167.515-.25.82-.031.109-.1.315-.027.429.083.127.553.088.833.088 1.559 0 3.041-.013 4.578-.013.815 0 1.7-.066 2.017.403.177.26.19.626.038.933-.056.116-.213.248-.34.367-.125.119-.262.224-.378.316-.368.287-.627.532-1.008.743-.21.115-.463.258-.72.328-.183.05-.35.123-.542.151-.96.141-5.373.183-6.078-.025-.566-.165-1.127-.535-1.451-.959-.246-.32-.432-.779-.493-1.311-.027-.244-.064-.49-.025-.706.035-.191.041-.387.076-.568.167-.855.449-1.7.674-2.542.325-1.225.675-2.444 1.003-3.667.427-1.59 1.678-2.877 3.318-3.2.41-.08.892-.075 1.374-.075 1.467 0 2.85.02 4.351 0M89.46 37.5h-4.814l1.743-6.527h.235c.1-.03.376 0 .555 0h4.025L89.46 37.5zm5.104-7.862a2.633 2.633 0 00-1.962-1.895c-.393-.089-.88-.075-1.387-.075h-2.927c-.486 0-.976-.01-1.461.019a5.706 5.706 0 00-1.141.174c-1.21.328-2.19 1.372-2.707 2.481-.037.08-1.883 6.816-1.917 6.974-.14.637-.06 1.356.22 1.945.115.24.29.478.466.672.685.75 1.658.864 2.618.864 1.533 0 3.082.047 4.591 0 .33-.01.685-.066.971-.176.293-.113.57-.197.807-.341.462-.28.901-.614 1.274-1.022.335-.365.706-.922.87-1.437.092-.287 1.62-6.141 1.652-6.28.073-.312.19-.702.177-1.023-.01-.289-.072-.6-.144-.88zM108.762 37.5h-4.814l1.743-6.527h4.815l-1.744 6.528zm3.07-11.864s-.328 1.507-.365 1.616c-.066.192-.073.341-.154.391-.1.06-.418.025-.605.025h-3.002c-.412 0-.83-.031-1.198-.012-.412.02-.827.1-1.22.226-.231.075-.456.17-.67.287-.23.124-.453.27-.66.428-.716.545-1.37 1.325-1.625 2.199-.04.138-.51 1.97-.542 2.106-.036.15-.381 1.547-.417 1.703-.03.135-.718 2.39-.769 2.95-.033.37.023.799.1 1.16.144.666.512 1.284 1.097 1.651.72.452 1.604.431 2.422.431h3.406c.432 0 .846-.023 1.198-.076.215-.032.455-.117.655-.189.703-.253 1.32-.72 1.78-1.21.336-.361.594-.764.806-1.237.086-.19.117-.343.177-.554.029-.105.077-.203.1-.304.028-.117 2.615-10.016 2.643-10.12.028-.104.13-.549.207-.838l.17-.637-3.534.004zM122.482 37.5h-4.814l1.744-6.527h4.814l-1.744 6.528zm5.09-7.625c-.169-1.317-1.503-2.12-2.74-2.207-.687-.048-1.475 0-2.245 0-.57 0-1.129.019-1.677.019-.054 0-.111-.01-.165-.005-.127.012-.335.003-.341-.166-.005-.107.037-.222.065-.323.043-.167.102-.328.138-.496.018-.077.04-.154.065-.229.03-.089.198-.832.198-.832h-3.53s-.127.65-.15.72c-.063.189-2.584 9.926-2.611 10.027-.047.177-.074.362-.138.554-.062.182-.1.38-.127.568-.08.544.027 1.192.164 1.54.097.244.174.435.316.617.26.335.663.687 1.046.858.082.036.425.166.505.19.509.144 1.049.105 1.572.102.91-.005 1.82.02 2.73.02.26.003.522.003.782-.002.343-.005.688-.03 1.025-.098.669-.134 1.268-.375 1.812-.792.781-.604 1.387-1.372 1.66-2.33.24-.851.427-1.726.65-2.582l.643-2.494c.053-.205.102-.412.161-.616.195-.672.281-1.345.193-2.043z" fill="#231F20"></path></g></svg> 